# xmcd
#
# Track frame offsets: 
#        150
#        19508
#        35719
#        51294
#        63555
#        87495
#        105704
#        120811
#        142273
#        165978
#
# Disc length: 2488 seconds
#
# Revision: 6
# Processed by: cddbd v1.5.2PL0 Copyright (c) Steve Scherf et al.
# Submitted via: ExactAudioCopyFreeDBPlugin 1.0
#
DISCID=8309b60a
DTITLE=Joe Cocker - 1972 - Cd 2 With A Little Help From My Friends
DYEAR=1972
DGENRE=Blues - Rock
TTITLE0=Feeling Alright
TTITLE1=Bye Bye Blackbird
TTITLE2=Change In Louise
TTITLE3=Marjorine
TTITLE4=Just Like A Woman
TTITLE5=Do I Still Figure In Your Life
TTITLE6=Sandpaper Cadillac
TTITLE7=Don't Let Me Be Misunderstood
TTITLE8=With A Little Help From My Friends
TTITLE9=I Shall Be Released
EXTD=
EXTT0=
EXTT1=
EXTT2=
EXTT3=
EXTT4=
EXTT5=
EXTT6=
EXTT7=
EXTT8=
EXTT9=
PLAYORDER=
